# xmcd
#
# Track frame offsets:
#	150
#	11732
#	24782
#	41237
#	54225
#	66457
#	78112
#	90692
#	104947
#	119485
#	129847
#	142665
#
# Disc length: 2049 seconds
#
# Revision: 0
# Processed by: cddbd v1.4PL0 Copyright (c) Steve Scherf et al.
# Submitted via: EasyCDDAExtractor 4.6.9.1
#
DISCID=9a07ff0c
DTITLE=Freddy Fender - The Best Of Freddy Fender
DYEAR=1996
DGENRE=Country
TTITLE0=Before The Next Teardrop Falls
TTITLE1=Wasted Days And Wasted Nights
TTITLE2=Secret Love
TTITLE3=You'll Lose A Good Thing
TTITLE4=Vaya Con Dios
TTITLE5=Livin' It Down
TTITLE6=Sugar Coated Love
TTITLE7=Wild Side Of Life
TTITLE8=Since I Met You Baby
TTITLE9=The Rains Came
TTITLE10=I Love My Rancho Grande
TTITLE11=Mathilda
EXTD=
EXTT0=
EXTT1=
EXTT2=
EXTT3=
EXTT4=
EXTT5=
EXTT6=
EXTT7=
EXTT8=
EXTT9=
EXTT10=
EXTT11=
PLAYORDER=
